Coordinates
version=1
nRows=8
nColumns=40
inDegrees=yes

Units are S.I. units (second, meters, Newtons, ...)
If the header above contains a line with 'inDegrees', this indicates whether rotational values are in degrees (yes) or radians (no).

endheader
time	pelvis_tilt	pelvis_list	pelvis_rotation	pelvis_tx	pelvis_ty	pelvis_tz	hip_flexion_r	hip_adduction_r	hip_rotation_r	knee_angle_r	knee_angle_r_beta	ankle_angle_r	subtalar_angle_r	mtp_angle_r	hip_flexion_l	hip_adduction_l	hip_rotation_l	knee_angle_l	knee_angle_l_beta	ankle_angle_l	subtalar_angle_l	mtp_angle_l	lumbar_extension	lumbar_bending	lumbar_rotation	arm_flex_r	arm_add_r	arm_rot_r	elbow_flex_r	pro_sup_r	wrist_flex_r	wrist_dev_r	arm_flex_l	arm_add_l	arm_rot_l	elbow_flex_l	pro_sup_l	wrist_flex_l	wrist_dev_l
     18.05000000000000071054	     10.97658897091892349351	     -2.64065192470296628002	   -179.37313627863602505386	      0.30397410549277220637	      0.77756299036669729308	     -0.93285553760352790675	     52.44238853783306097966	    -44.37941505568507949420	    -21.06078703779009941854	     45.51373693172703838172	      0.79436456434517843661	    -10.31323898752734358197	      0.00000000000000000000	      0.00000000000000000000	     51.48828186623844516134	    -34.80620398411474525346	    -14.43604144548807433068	     50.23379719360374906501	      0.87674515680747278079	      0.02648836884540582345	      0.00000000000000000000	      0.00000000000000000000	    -63.08533774789157178020	      2.48751930451567915270	     -2.27280892589244398749	     57.24916789647688375453	    -12.34440893234079794638	     41.56161299701774680670	      7.84953160102048030922	     34.84959819747435716408	      0.00000000000000000000	      0.00000000000000000000	     64.40215598660928719710	    -13.88000356786312394775	     46.64183117331938888128	     17.01327912355981553105	     82.14363301277016660151	      0.00000000000000000000	      0.00000000000000000000
     18.05499999999999971578	     10.95173093823708221350	     -2.55549110342785557037	   -179.49424601145216229270	      0.30429811760077102312	      0.77855817325898357684	     -0.93310758287358930296	     52.16710169201145674833	    -44.00834176704913147660	    -21.01814233061670122993	     45.05364900497359315068	      0.78633451517465635661	    -10.53645899706457633727	      0.00000000000000000000	      0.00000000000000000000	     51.24158451262746183374	    -34.90936950379992964599	    -14.61538152050614947086	     49.85886164796490760409	      0.87020129705331361603	     -0.15447908569080828767	      0.00000000000000000000	      0.00000000000000000000	    -62.94423896462934919782	      2.41446060117697758329	     -2.15292087542400301103	     57.00983651180584388385	    -12.28332189704116217399	     41.58196693233363561149	      7.80598298759895037335	     34.87019142242756686301	      0.00000000000000000000	      0.00000000000000000000	     64.24589155230573567223	    -13.88296989108860124418	     46.72972260188509352474	     17.03744581630320809040	     82.19219557339744142155	      0.00000000000000000000	      0.00000000000000000000
     18.05999999999999872102	     10.87286305687742249404	     -2.55557235895825041183	   -179.48305402533097208106	      0.30455655476180376606	      0.77938056393482335604	     -0.93305094184566916837	     51.94043279089578390995	    -43.94053608986666148439	    -21.06663766087047306996	     44.84275549895180290605	      0.78265372912350161805	    -10.63431716250597780515	      0.00000000000000000000	      0.00000000000000000000	     51.05712738630782610016	    -34.83530199874459043485	    -14.63810168701110825396	     49.66624968319075605905	      0.86683958408926931050	     -0.25525281563238977345	      0.00000000000000000000	      0.00000000000000000000	    -62.82134971324344263621	      2.42624636689554096236	     -2.17695292112915161908	     56.89840357079039279142	    -12.29098696536934554047	     41.57121308917827917639	      7.80888364799356349266	     34.88394148969081243195	      0.00000000000000000000	      0.00000000000000000000	     64.07669058572915332661	    -13.90145467753332297889	     46.79734988531598816053	     17.02947692233143328622	     82.21163580440591545084	      0.00000000000000000000	      0.00000000000000000000
     18.06500000000000127898	     10.57698667133339043289	     -2.67917213316993718664	   -179.51596337119264035209	      0.30456710836893313710	      0.78090276961511584375	     -0.93312321634986161722	     51.45485501588365195857	    -43.92342702925798647584	    -21.11618548276940998676	     44.47468270423535585678	      0.77622964696868235190	    -10.75439808343591430173	      0.00000000000000000000	      0.00000000000000000000	     50.38749680598905911211	    -34.73335273400784473097	    -15.07756602709472559809	     49.31686864206744047578	      0.86074173457762170880	     -0.34098420868519396798	      0.00000000000000000000	      0.00000000000000000000	    -62.98983214662298024678	      2.31721766854375577083	     -2.25890225672646316468	     56.84843722395427789706	    -12.32900615497302254653	     41.48587508808770962787	      7.89917936569385847889	     34.92146609975286253302	      0.00000000000000000000	      0.00000000000000000000	     64.03175865594040772066	    -13.96089120302923269890	     47.00423075638396142040	     17.16305858958838115313	     82.18758936319935060055	      0.00000000000000000000	      0.00000000000000000000
     18.07000000000000028422	     10.57317793893080093426	     -2.63912752681531648236	   -179.48434795278734554813	      0.30484081398743073654	      0.78154204606235488928	     -0.93313121915621366487	     51.30062456701831763439	    -43.85855542658192973704	    -21.25455106212486100503	     44.33036900106890954021	      0.77371089769268219793	    -10.82276830167577408304	      0.00000000000000000000	      0.00000000000000000000	     50.33752099360883391910	    -34.67301589227845681762	    -15.00678587254369489301	     49.13881686762199763052	      0.85763414487453049073	     -0.43708213452590777282	      0.00000000000000000000	      0.00000000000000000000	    -62.77800147729831792276	      2.36149342934466899280	     -2.27183359200431977953	     56.67767071793963395976	    -12.26367568258282325644	     41.46203262332544170476	      7.87624470037553692237	     34.92682590617594229343	      0.00000000000000000000	      0.00000000000000000000	     63.85206841801650057278	    -13.98147270069300596163	     47.06319225598338817917	     17.12244565419531028283	     82.20300035208003919251	      0.00000000000000000000	      0.00000000000000000000
     18.07499999999999928946	     10.55269152898400086826	     -2.68174327567572889919	   -179.36032075160613885600	      0.30515255784868666744	      0.78210801521271033909	     -0.93283292137929940679	     51.17528321942543811929	    -43.99145279267294483816	    -21.42233273622251843449	     44.25283323624029918619	      0.77235764330837086700	    -10.83409634197516702159	      0.00000000000000000000	      0.00000000000000000000	     50.34357930917297352380	    -34.47005855417506126059	    -14.87850133521236095646	     49.09073476241687927768	      0.85679495382741088783	     -0.50173153861679009591	      0.00000000000000000000	      0.00000000000000000000	    -62.59836460657398049534	      2.45402405185772298779	     -2.35418057350929821325	     56.56030204805167471704	    -12.28586971432338437182	     41.44999410012399465586	      7.84312960002768022605	     34.92813704535914354210	      0.00000000000000000000	      0.00000000000000000000	     63.75103522082762452783	    -13.97168853335391247583	     47.08731113730749484603	     17.10094747874033416224	     82.21813638320016082162	      0.00000000000000000000	      0.00000000000000000000
     18.07999999999999829470	     10.54074008706196075025	     -2.61998823875385067339	   -179.47807255328481801371	      0.30544749268955706523	      0.78315105087362246739	     -0.93320326792447605424	     50.91643855739170021479	    -43.62213035654247050843	    -21.34156670097197761038	     43.76631161977198303248	      0.76386623921887375488	    -11.03833994245731808803	      0.00000000000000000000	      0.00000000000000000000	     50.06559479858661632079	    -34.55615754342742462768	    -15.11830163961227846414	     48.66620790303227295226	      0.84938556236799844790	     -0.72146892002605234051	      0.00000000000000000000	      0.00000000000000000000	    -62.42518495096390296339	      2.36393885926735958236	     -2.21385770501852618963	     56.27070473243040282796	    -12.25091176153745742283	     41.48790215937464154194	      7.75977515109905446877	     34.94912135259442464985	      0.00000000000000000000	      0.00000000000000000000	     63.59245717919743157154	    -13.94328185881727044659	     47.18153550038730514871	     17.11999315352744233110	     82.25237468025977705111	      0.00000000000000000000	      0.00000000000000000000
     18.08500000000000085265	     10.23252371847986452735	     -2.74338601231178413897	   -179.50561834416114947999	      0.30541813605755996353	      0.78466616581181591883	     -0.93326851919854136863	     50.46993057147673056306	    -43.63726492490446418060	    -21.36690229050805100997	     43.49457557004025431979	      0.75912355045469204207	    -11.18487416765053765744	      0.00000000000000000000	      0.00000000000000000000	     49.38579436241745668212	    -34.43030207923576568874	    -15.50247450012197347746	     48.31430580593685419899	      0.84324371212901061412	     -0.78075726153370883509	      0.00000000000000000000	      0.00000000000000000000	    -62.57599195104887712660	      2.25641542086075030937	     -2.31354476152092392027	     56.12796604320207194405	    -12.29339170138539927279	     41.57440910160487845815	      7.83295246319791438339	     35.04602056151371414217	      0.00000000000000000000	      0.00000000000000000000	     63.53560327044480970926	    -13.98827313928824622735	     47.53225003077061927570	     17.14418272413297827939	     82.19255343496617172150	      0.00000000000000000000	      0.00000000000000000000
